<svg xmlns="http://www.w3.org/2000/svg" viewBox="0 0 800 800"><defs><linearGradient id="a" x1="0%" y1="0%" x2="100%" y2="100%"><stop offset="0%" stop-color="#00f2fe" stop-opacity=".85"/><stop offset="50%" stop-color="#4facfe" stop-opacity=".5"/><stop offset="100%" stop-color="#07080c" stop-opacity=".95"/></linearGradient><linearGradient id="b" x1="0%" y1="100%" x2="100%" y2="0%"><stop offset="0%" stop-color="#ff007f"/><stop offset="100%" stop-color="#a020f0"/></linearGradient></defs><rect width="100%" height="100%" fill="#07080c"/><path d="M400 680c-80 0-140-70-140-170 0-80 70-120 140-150 70 30 140 70 140 150 0 100-60 170-140 170z" fill="url(#a)" stroke="#00f2fe" stroke-width="3" stroke-dasharray="6,4"/><path d="M330 400c-90-40-160-130-140-240" fill="none" stroke="url(#a)" stroke-width="14" stroke-linecap="round"/><path fill="url(#b)" d="M190 135l-15 40h30z"/><circle cx="190" cy="160" r="4" fill="#fff"/><path d="M400 360c0-90-25-170 0-270" fill="none" stroke="url(#a)" stroke-width="18" stroke-linecap="round"/><path fill="url(#b)" d="M400 60l-20 45h40z"/><circle cx="400" cy="95" r="5" fill="#fff"/><path d="M470 400c90-40 160-130 140-240" fill="none" stroke="url(#a)" stroke-width="14" stroke-linecap="round"/><path fill="url(#b)" d="M610 135l-15 40h30z"/><circle cx="610" cy="160" r="4" fill="#fff"/><path d="M400 360v150m0 0l-70 80m70-80l70 80" fill="none" stroke="#00f2fe" stroke-width="3" opacity=".6"/><circle cx="400" cy="510" r="8" fill="#ff007f"/><circle cx="330" cy="590" r="6" fill="#00f2fe"/><circle cx="470" cy="590" r="6" fill="#00f2fe"/></svg>